<?xml version="1.0" encoding="utf-8"?>
<!-- Generator: Adobe Illustrator 27.5.0, SVG Export Plug-In . SVG Version: 6.00 Build 0)  -->
<svg version="1.1" xmlns="http://www.w3.org/2000/svg" xmlns:xlink="http://www.w3.org/1999/xlink" x="0px" y="0px"
	 viewBox="0 0 2200 2200" style="enable-background:new 0 0 2200 2200;" xml:space="preserve">
<g id="background">
	<rect y="0" style="fill:#FFFFFF;" width="2200" height="2200"/>
</g>
<g id="Objects">
	<path d="M1985.552,823.108c-35.829-84.709-87.117-160.781-152.44-226.104c-65.324-65.323-141.396-116.611-226.104-152.44
		c-87.709-37.098-180.869-55.908-276.892-55.908c-153.633,0-244.056,35.341-247.83,36.845c-8.766,3.494-13.034,13.423-9.551,22.192
		c3.483,8.768,13.42,13.059,22.194,9.585c0.218-0.086,22.223-8.709,62.055-17.218c36.737-7.849,96.597-17.204,173.133-17.204
		c54.345,0,107.72,6.327,159.608,18.873c-68.218,50.211-208.109,43.045-222.147,42.834c-15.237-0.238-30.917,2.819-43.209,10.996
		c-6.379,4.249-11.644,9.742-16.454,15.463c-18.034,21.671-29.814,47.652-33.817,74.619c-1.16,7.742-1.66,15.722,0.523,23.308
		c3.877,13.587,6.594,23.391,18.925,31.861c11.587,7.959,24.318,1.334,30.356-0.313c4.719-1.295,9.802-0.383,14.6,0.529
		c4.514,0.86,9.21,1.814,12.804,4.446c4.855,3.576,6.754,9.669,6.379,15.328v0.083c-0.261,3.876-3.786,6.944-8.073,7.317
		c-15.226,1.254-26.039,9.555-33.066,17.826c-8.744,10.239-13.361,23.557-24.538,31.537c-13.668,9.711-34.465,9.431-45.893,21.297
		c-10.757,11.151-6.993,31.112,7.255,38.335c3.241,1.669,6.993,2.788,9.426,5.4c4.548,4.912,1.797,13.048-3.923,16.872
		c-5.685,3.793-13.213,4.363-20.274,4.446c-7.095,0.093-14.452-0.155-20.922,2.404c-9.256,3.669-15.066,12.581-16.692,21.67
		c-4.275,24.272,19.433,47.704,46.132,51.186c26.676,3.513,53.523-9.213,71.659-27.433c8.676-8.726,15.942-18.831,26.415-25.795
		c10.45-6.954,25.607-9.97,36.125-3.099c4.969,3.275,8.255,8.312,12.997,11.887c4.708,3.565,11.064,5.524,17.056,4.425
		c5.981-1.109,11.28-5.7,11.86-11.234c0.307-2.912-0.603-5.856-0.478-8.799c0.353-7.773,8.358-14.022,16.818-15.09
		c8.471-1.057,16.977,2.094,24.015,6.467c23.924,14.986,33.317,42.502,49.395,64.524c0.921,1.295,1.922,2.591,3.297,3.441
		c5.356,3.182,12.213-2.052,14.509-7.451c2.308-5.41,3.002-11.877,7.937-15.577c7.152-5.42,18.489-0.964,24.152,5.752
		c5.64,6.768,8.187,15.359,13.963,22.023c7.289,8.415,19.069,12.81,30.747,13.856c11.723,1.005,23.481-1.026,34.92-3.441
		c1.899-0.415,4.139-0.757,5.572,0.456c0.898,0.777,1.16,1.959,1.353,3.078c2.399,13.338,1.956,27.08-1.171,40.325
		c-2.9,12.271-17.011,19.453-30.144,15.639c-24.186-7.016-42.322-18.572-62.403-23.795c-4.958-1.285-10.143-2.581-15.135-1.482
		c-6.436,1.451-10.939,6.446-15.817,10.498c-16.783,13.991-42.675,18.064-63.654,10.042c-14.941-5.773-26.835-17.504-32.668-31.278
		c-4.139-9.825-14.987-15.898-26.46-14.468c-43.13,5.317-86.225,10.675-129.4,16.012c-21.036,2.601-43.971,6.094-58.105,20.541
		c-11.928,12.177-14.816,29.433-21.809,44.481c-11.132,23.795-32.907,42.253-45.313,65.53
		c-16.374,30.739-14.873,66.659-10.927,100.663c4.81,41.496,16.51,87.978,55.911,109.213c30.337,16.333,68.487,12.675,103.077,6.488
		c34.602-6.177,70.625-14.292,104.464-5.337c5.378,1.441,10.757,3.337,14.907,6.747c18.682,15.286,0.739,44.077,7.869,66.027
		c4.003,12.323,15.612,21.142,22.992,32.107c15.737,23.204,11.041,53.249,1.831,79.179c-9.233,25.971-22.605,51.477-22.821,78.743
		c-0.284,37.454,24.174,74.619,27.449,110.456c1.376,15.131,16.203,26.065,32.759,24.479c47.314-4.467,92.752-28.5,117.711-65.613
		c8.539-12.696,14.873-26.655,24.698-38.543c11.632-14.053,27.586-24.552,41.947-36.325c19.308-15.888,36.694-35.724,40.219-59.249
		c3.957-26.656-10.529-53.073-9.176-79.946c1.626-31.931,24.811-58.959,44.983-85.086c28.132-36.428,52.215-75.396,71.807-116.208
		c1.273-2.643,2.547-5.524,1.797-8.364c-2.251-8.322-15.703-5.493-24.914-3.71c-27.006,5.161-50.6-17.059-64.757-38.625
		c-18.864-28.77-32.27-60.545-39.332-93.429c42.129,9.524,80.13,33.122,105.715,65.022c4.969,6.229,14.179,8.094,21.491,4.28
		c6.993-3.669,14.032-7.224,21.184-10.623c6.254-3.026,9.756-9.421,8.415-15.732c-6.891-33.713-24.083-65.654-49.338-91.118
		c73.235-16.504,117.677,11.81,138.359,86.784c11.837,42.911-28.552,117.602,65.2,118.462c46.362,23.181,79.568,16.089,99.791,5.193
		c-8.116,57.885-23.689,114.251-46.601,168.423c-34.105,80.632-82.932,153.051-145.125,215.243
		c-62.192,62.193-134.611,111.02-215.243,145.125c-83.47,35.304-172.148,53.206-263.569,53.206s-180.099-17.902-263.569-53.206
		c-80.631-34.105-153.05-82.932-215.243-145.125c-62.193-62.192-111.02-134.611-145.124-215.243
		c-27.831-65.8-44.838-134.837-50.795-205.902c-0.003-0.028-0.003-0.056-0.007-0.084c-1.595-19.057-2.404-38.258-2.404-57.583
		c0-121.81,32.702-241.235,94.569-345.365c4.824-8.119,2.152-18.612-5.967-23.436c-8.121-4.824-18.611-2.153-23.436,5.966
		c-31.908,53.705-56.413,111.283-73.114,171.119c-33.074-30.089-55.592-67.232-64.274-106.658
		c-10.41-47.23,2.076-96.604,31.809-125.785c21.186-20.788,45.113-30.939,70.445-41.686c21.275-9.026,43.276-18.359,63.138-34.313
		c25.068-20.127,45.133-45.507,58.027-73.395c7.82-16.915,12.626-34.04,14.33-50.779c42.172,35.113,63.735,78.527,81.544,131.172
		c9.467,27.981,14.617,62.541,14.132,94.818c-0.631,41.829-10.016,79.031-27.895,110.573
		c-29.498,52.041-81.415,86.43-154.307,102.21c-9.23,1.998-15.093,11.101-13.094,20.331c1.998,9.23,11.095,15.096,20.331,13.095
		c82.823-17.93,142.315-57.89,176.824-118.771c44.055-77.72,36.372-174.206,16.407-233.216
		c-20.476-60.527-49.579-122.893-123.242-168.99c-5.779-3.616-13.153-3.454-18.768,0.411c-5.615,3.866-8.397,10.697-7.081,17.385
		c8.273,42.061-15.284,93.696-58.621,128.491c-16.169,12.988-35.07,21.006-55.081,29.496c-27.151,11.518-55.226,23.429-81.042,48.76
		c-19.581,19.218-33.63,44.728-40.627,73.773c-6.523,27.078-6.739,56.05-0.627,83.78c11.384,51.7,42.615,99.727,88.392,136.306
		c-11.225,50.537-16.971,102.414-16.971,154.709c0,0.223,0.004,0.446,0.004,0.669c-12.779-15.775-26.875-30.601-42.074-44.243
		c3.384-63.168-13.589-116.178-50.54-157.655c-23.916-26.845-55.276-47.807-93.209-62.303
		c-39.436-15.07-73.312-18.265-89.997-18.828c-56.26-1.893-116.73,2.766-177.689,49.272c-5.42,4.135-7.866,11.094-6.226,17.711
		c1.641,6.616,7.055,11.627,13.779,12.751c36.217,6.053,70.556,40.664,85.451,86.131c5.561,16.958,6.297,34.761,7.075,53.609
		c1.023,24.766,2.183,52.835,15.131,82.143c9.864,22.319,26.682,41.993,48.638,56.895c20.426,13.863,44.387,23.086,69.287,26.668
		c8.915,1.286,17.943,1.922,27.032,1.922c41.133,0,83.453-13.031,121.615-37.802c7.922-5.141,10.175-15.732,5.033-23.653
		c-5.142-7.922-15.732-10.177-23.653-5.033c-39.642,25.731-84.082,36.639-125.149,30.716c-41.155-5.921-77.079-30.861-91.518-63.535
		c-10.327-23.375-11.257-45.892-12.242-69.731c-0.841-20.349-1.709-41.391-8.747-62.85c-8.857-27.037-23.63-51.573-42.719-70.954
		c-10.565-10.727-22.062-19.435-34.141-25.933c40.206-21.764,81.044-25.723,127.895-24.143
		c46.004,1.552,115.203,20.739,158.821,69.699c25.738,28.891,39.791,65.001,41.985,107.64
		c-43.957-31.211-93.984-52.616-144.921-61.961c-9.291-1.709-18.201,4.444-19.905,13.733c-1.704,9.289,4.445,18.201,13.733,19.905
		c47.109,8.643,93.452,28.752,134.018,58.155c39.133,28.363,72.295,64.93,96.146,105.894
		c6.578,73.128,24.318,144.197,52.998,212.005c35.829,84.708,87.117,160.78,152.44,226.104
		c65.324,65.323,141.396,116.611,226.104,152.44c87.709,37.098,180.869,55.908,276.892,55.908s189.183-18.811,276.892-55.908
		c84.708-35.829,160.78-87.117,226.104-152.44c65.323-65.324,116.611-141.396,152.44-226.104
		c37.098-87.709,55.908-180.869,55.908-276.892S2022.65,910.817,1985.552,823.108z"/>
</g>
</svg>
